<svg xmlns="http://www.w3.org/2000/svg" width="926.258" height="378.285" viewBox="0 0 926.258 378.285">
  <g id="Logo_Anugerah_Developer" data-name="Logo Anugerah Developer" transform="translate(-497 -66.965)">
    <g id="Group_9" data-name="Group 9" transform="translate(499 70.965)">
      <line id="Line_1" data-name="Line 1" x2="361.253" transform="translate(0 43.563)" fill="none" stroke="#2c44e1" stroke-linecap="round" stroke-width="4"/>
      <line id="Line_2" data-name="Line 2" x2="363.378" transform="translate(558.88 43.563)" fill="none" stroke="#2c44e1" stroke-linecap="round" stroke-width="4"/>
      <g id="Path_7" data-name="Path 7" transform="translate(-1102.611 -402.28)" fill="none" stroke-linecap="round" stroke-linejoin="round">
        <path d="M1525.008,489.873h75.62L1618.5,433.9l-41.248,11-16.5-42.622L1542.882,444.9l-34.373-11Z" stroke="none"/>
        <path d="M 1600.62841796875 489.8734130859375 L 1618.501953125 433.9027709960938 L 1577.25439453125 444.902099609375 L 1560.755615234375 402.27978515625 L 1542.881591796875 444.902099609375 L 1508.5087890625 433.9027709960938 L 1525.008056640625 489.8734130859375 L 1600.62841796875 489.8734130859375 M 1600.62841796875 493.8734130859375 L 1525.008056640625 493.8734130859375 C 1523.234497070313 493.8734130859375 1521.672729492188 492.70556640625 1521.171264648438 491.0044250488281 L 1504.671997070313 435.0337829589844 C 1504.253173828125 433.613037109375 1504.65380859375 432.0771484375 1505.713134765625 431.0419311523438 C 1506.471923828125 430.3004150390625 1507.47998046875 429.9026794433594 1508.50927734375 429.9026794433594 C 1508.916870117188 429.9026794433594 1509.32763671875 429.9649963378906 1509.727905273438 430.0930786132813 L 1540.610107421875 439.9754333496094 L 1557.066772460938 400.7328796386719 C 1557.690673828125 399.2454223632813 1559.14599609375 398.27978515625 1560.755249023438 398.27978515625 C 1560.77392578125 398.27978515625 1560.792358398438 398.2799072265625 1560.811157226563 398.2801513671875 C 1562.442626953125 398.3027954101563 1563.896850585938 399.3141479492188 1564.48583984375 400.8358154296875 L 1579.689697265625 440.1128845214844 L 1617.471313476563 430.0378112792969 C 1617.81201171875 429.9469604492188 1618.158447265625 429.9026489257813 1618.501708984375 429.9026489257813 C 1619.581665039063 429.9026489257813 1620.632934570313 430.3405151367188 1621.398193359375 431.1437377929688 C 1622.406616210938 432.2023315429688 1622.757202148438 433.726806640625 1622.312377929688 435.1195678710938 L 1604.438842773438 491.0902404785156 C 1603.909423828125 492.7481079101563 1602.368774414063 493.8734130859375 1600.62841796875 493.8734130859375 Z" stroke="none" fill="#2c44e1"/>
      </g>
    </g>
    <g id="Group_8" data-name="Group 8" transform="translate(653 383.093)">
      <path id="Icon_ionic-ios-star" data-name="Icon ionic-ios-star" d="M66.648,24.891H44.669L37.99,4.959a2.42,2.42,0,0,0-4.542,0L26.769,24.891H4.641A2.4,2.4,0,0,0,2.25,27.281a1.757,1.757,0,0,0,.045.4,2.3,2.3,0,0,0,1,1.688L21.36,42.1,14.427,62.26a2.4,2.4,0,0,0,.822,2.689,2.312,2.312,0,0,0,1.345.583,2.929,2.929,0,0,0,1.494-.538L35.719,52.428,53.35,64.994a2.8,2.8,0,0,0,1.494.538,2.147,2.147,0,0,0,1.33-.583A2.368,2.368,0,0,0,57,62.26L50.063,42.1l17.915-12.85.433-.374a2.506,2.506,0,0,0,.777-1.6A2.53,2.53,0,0,0,66.648,24.891Z" transform="translate(-2.25 -3.375)" fill="#d3cf53"/>
      <path id="Icon_ionic-ios-star-2" data-name="Icon ionic-ios-star" d="M66.648,24.891H44.669L37.99,4.959a2.42,2.42,0,0,0-4.542,0L26.769,24.891H4.641A2.4,2.4,0,0,0,2.25,27.281a1.757,1.757,0,0,0,.045.4,2.3,2.3,0,0,0,1,1.688L21.36,42.1,14.427,62.26a2.4,2.4,0,0,0,.822,2.689,2.312,2.312,0,0,0,1.345.583,2.929,2.929,0,0,0,1.494-.538L35.719,52.428,53.35,64.994a2.8,2.8,0,0,0,1.494.538,2.147,2.147,0,0,0,1.33-.583A2.368,2.368,0,0,0,57,62.26L50.063,42.1l17.915-12.85.433-.374a2.506,2.506,0,0,0,.777-1.6A2.53,2.53,0,0,0,66.648,24.891Z" transform="translate(133.775 -3.375)" fill="#d3cf53"/>
      <path id="Icon_ionic-ios-star-3" data-name="Icon ionic-ios-star" d="M66.648,24.891H44.669L37.99,4.959a2.42,2.42,0,0,0-4.542,0L26.769,24.891H4.641A2.4,2.4,0,0,0,2.25,27.281a1.757,1.757,0,0,0,.045.4,2.3,2.3,0,0,0,1,1.688L21.36,42.1,14.427,62.26a2.4,2.4,0,0,0,.822,2.689,2.312,2.312,0,0,0,1.345.583,2.929,2.929,0,0,0,1.494-.538L35.719,52.428,53.35,64.994a2.8,2.8,0,0,0,1.494.538,2.147,2.147,0,0,0,1.33-.583A2.368,2.368,0,0,0,57,62.26L50.063,42.1l17.915-12.85.433-.374a2.506,2.506,0,0,0,.777-1.6A2.53,2.53,0,0,0,66.648,24.891Z" transform="translate(272.634 -3.375)" fill="#d3cf53"/>
      <path id="Icon_ionic-ios-star-4" data-name="Icon ionic-ios-star" d="M66.648,24.891H44.669L37.99,4.959a2.42,2.42,0,0,0-4.542,0L26.769,24.891H4.641A2.4,2.4,0,0,0,2.25,27.281a1.757,1.757,0,0,0,.045.4,2.3,2.3,0,0,0,1,1.688L21.36,42.1,14.427,62.26a2.4,2.4,0,0,0,.822,2.689,2.312,2.312,0,0,0,1.345.583,2.929,2.929,0,0,0,1.494-.538L35.719,52.428,53.35,64.994a2.8,2.8,0,0,0,1.494.538,2.147,2.147,0,0,0,1.33-.583A2.368,2.368,0,0,0,57,62.26L50.063,42.1l17.915-12.85.433-.374a2.506,2.506,0,0,0,.777-1.6A2.53,2.53,0,0,0,66.648,24.891Z" transform="translate(408.66 -3.375)" fill="#d3cf53"/>
      <path id="Icon_ionic-ios-star-5" data-name="Icon ionic-ios-star" d="M66.648,24.891H44.669L37.99,4.959a2.42,2.42,0,0,0-4.542,0L26.769,24.891H4.641A2.4,2.4,0,0,0,2.25,27.281a1.757,1.757,0,0,0,.045.4,2.3,2.3,0,0,0,1,1.688L21.36,42.1,14.427,62.26a2.4,2.4,0,0,0,.822,2.689,2.312,2.312,0,0,0,1.345.583,2.929,2.929,0,0,0,1.494-.538L35.719,52.428,53.35,64.994a2.8,2.8,0,0,0,1.494.538,2.147,2.147,0,0,0,1.33-.583A2.368,2.368,0,0,0,57,62.26L50.063,42.1l17.915-12.85.433-.374a2.506,2.506,0,0,0,.777-1.6A2.53,2.53,0,0,0,66.648,24.891Z" transform="translate(544.685 -3.375)" fill="#d3cf53"/>
    </g>
    <text id="Best_of_the_best" data-name="Best of the best" transform="translate(960 349)" font-size="70" font-family="TimesNewRomanPSMT, Times New Roman" letter-spacing="0.022em"><tspan x="-228.318" y="0">Best of the best</tspan></text>
    <text id="Anugerah_Developer" data-name="Anugerah Developer" transform="translate(960 252)" font-size="78" font-family="TimesNewRomanPSMT, Times New Roman" letter-spacing="0.053em"><tspan x="-361.078" y="0">Anugerah Developer</tspan></text>
  </g>
</svg>
